<?xml version="1.0" encoding="utf-8"?>
<!-- Generator: Adobe Illustrator 17.1.0, SVG Export Plug-In . SVG Version: 6.00 Build 0)  -->
<!DOCTYPE svg PUBLIC "-//W3C//DTD SVG 1.1//EN" "http://www.w3.org/Graphics/SVG/1.1/DTD/svg11.dtd">
<svg version="1.1" id="Layer_1" xmlns="http://www.w3.org/2000/svg" xmlns:xlink="http://www.w3.org/1999/xlink" x="0px" y="0px"
	 viewBox="0 0 500 500" enable-background="new 0 0 500 500" xml:space="preserve">
<circle fill="#FFDD4E" cx="250" cy="250" r="250"/>
<path fill="none" stroke="#FFFFFF" stroke-width="20" stroke-miterlimit="10" d="M305.8,331C305.8,331,305.8,331,305.8,331
	c-2,0-4-0.2-6-0.7l-48.7-11.6c-0.8-0.2-1.6-0.2-2.3,0l-48.7,11.6c-2,0.5-4,0.7-6,0.7c-8.8,0-16.8-4.5-21.4-12.1
	c-4.6-7.5-5-16.7-1.1-24.6l55.7-111.4c4.3-8.6,13-14,22.6-14c9.6,0,18.3,5.4,22.6,14l55.7,111.4c4,7.9,3.5,17.1-1.1,24.6
	C322.6,326.5,314.6,331,305.8,331z"/>
</svg>
